<svg width="24" height="24" viewBox="0 0 24 24" fill="none" xmlns="http://www.w3.org/2000/svg">
<path d="M11.2028 3.1396C11.2028 2.74589 11.2028 2.35219 11.2028 1.90926C11.2304 1.65932 11.3492 1.42834 11.5365 1.26056C11.7238 1.09278 11.9664 1 12.2179 1C12.4693 1 12.7119 1.09278 12.8992 1.26056C13.0865 1.42834 13.2053 1.65932 13.2329 1.90926C13.2329 2.20454 13.2329 2.51213 13.2329 2.81971V3.05348C13.7286 3.17928 14.2173 3.33124 14.697 3.50871C15.9555 3.94746 17.0639 4.73399 17.8936 5.77707C18.7232 6.82016 19.2402 8.07707 19.3846 9.40204C19.4091 9.73378 19.4091 10.0669 19.3846 10.3986C19.3846 12.1703 19.3846 13.942 19.3846 15.7014C19.3814 15.7794 19.3952 15.8572 19.4249 15.9294C19.4547 16.0016 19.4997 16.0665 19.5568 16.1197C20.0736 16.6241 20.5657 17.1286 21.0702 17.633C21.2426 17.7722 21.3651 17.9637 21.4192 18.1787C21.4732 18.3936 21.4559 18.6203 21.3697 18.8245C21.2836 19.0288 21.1334 19.1994 20.9417 19.3107C20.7501 19.422 20.5274 19.468 20.3073 19.4416H4.12836C3.90939 19.4647 3.68882 19.4164 3.49953 19.304C3.31024 19.1915 3.16238 19.0208 3.07799 18.8175C2.99359 18.6141 2.97719 18.3889 3.03123 18.1755C3.08527 17.962 3.20686 17.7717 3.37785 17.633C3.86999 17.1286 4.36213 16.6241 4.86657 16.1443C4.93349 16.0871 4.98614 16.015 5.02031 15.9338C5.05448 15.8527 5.06925 15.7647 5.06342 15.6768C5.06342 13.8682 5.06342 12.0596 5.06342 10.2633C5.05758 8.66265 5.58913 7.10639 6.5729 5.84376C7.55668 4.58114 8.93576 3.68523 10.4892 3.29955C10.6984 3.23803 10.9321 3.20112 11.2028 3.1396ZM6.55213 17.4362H17.8713C17.6564 17.2454 17.4938 17.0028 17.3991 16.7314C17.3043 16.4601 17.2805 16.1691 17.3299 15.8859C17.3299 14.3972 17.3299 12.9085 17.3299 11.4198C17.3299 10.9031 17.3299 10.3863 17.3299 9.86957C17.2018 8.56459 16.5776 7.35856 15.5863 6.50029C14.595 5.64201 13.312 5.19695 12.0021 5.25692C10.6922 5.31689 9.45532 5.87732 8.54655 6.82259C7.63778 7.76786 7.12647 9.02586 7.11809 10.3371C7.11809 12.2318 7.11809 14.1265 7.11809 16.0213C7.14876 16.2701 7.11765 16.5226 7.02752 16.7565C6.9374 16.9904 6.79102 17.1985 6.60135 17.3623C6.5823 17.3851 6.56579 17.4098 6.55213 17.4362V17.4362Z" fill="#5C5F62"/>
<path d="M10 21.5H14.45C14.4469 21.8909 14.3425 22.2741 14.1472 22.6118C13.9519 22.9495 13.6724 23.2299 13.3365 23.4251C13.0006 23.6204 12.6199 23.7237 12.2322 23.725C11.8444 23.7262 11.4631 23.6253 11.1259 23.4322C10.783 23.2423 10.4973 22.9625 10.2991 22.6224C10.1009 22.2822 9.9976 21.8944 10 21.5V21.5Z" fill="#5C5F62"/>
</svg>
