<svg width="24" height="27" viewBox="0 0 24 27" fill="none" xmlns="http://www.w3.org/2000/svg">
<path d="M11.2028 6.1396C11.2028 5.74589 11.2028 5.35219 11.2028 4.90926C11.2304 4.65932 11.3492 4.42834 11.5365 4.26056C11.7238 4.09278 11.9664 4 12.2179 4C12.4693 4 12.7119 4.09278 12.8992 4.26056C13.0865 4.42834 13.2053 4.65932 13.2329 4.90926C13.2329 5.20454 13.2329 5.51213 13.2329 5.81971V6.05348C13.7286 6.17928 14.2173 6.33124 14.697 6.50871C15.9555 6.94746 17.0639 7.73399 17.8936 8.77707C18.7232 9.82016 19.2402 11.0771 19.3846 12.402C19.4091 12.7338 19.4091 13.0669 19.3846 13.3986C19.3846 15.1703 19.3846 16.942 19.3846 18.7014C19.3814 18.7794 19.3952 18.8572 19.4249 18.9294C19.4547 19.0016 19.4997 19.0665 19.5568 19.1197C20.0736 19.6241 20.5657 20.1286 21.0702 20.633C21.2426 20.7722 21.3651 20.9637 21.4192 21.1787C21.4732 21.3936 21.4559 21.6203 21.3697 21.8245C21.2836 22.0288 21.1334 22.1994 20.9417 22.3107C20.7501 22.422 20.5274 22.468 20.3074 22.4416H4.12836C3.90939 22.4647 3.68882 22.4164 3.49953 22.304C3.31024 22.1915 3.16238 22.0208 3.07799 21.8175C2.99359 21.6141 2.97719 21.3889 3.03123 21.1755C3.08527 20.962 3.20686 20.7717 3.37785 20.633C3.86999 20.1286 4.36213 19.6241 4.86657 19.1443C4.93349 19.0871 4.98614 19.015 5.02031 18.9338C5.05448 18.8527 5.06925 18.7647 5.06342 18.6768C5.06342 16.8682 5.06342 15.0596 5.06342 13.2633C5.05758 11.6627 5.58913 10.1064 6.5729 8.84376C7.55668 7.58114 8.93576 6.68523 10.4892 6.29955C10.6984 6.23803 10.9321 6.20112 11.2028 6.1396ZM6.55213 20.4362H17.8713C17.6564 20.2454 17.4938 20.0028 17.3991 19.7314C17.3043 19.4601 17.2805 19.1691 17.3299 18.8859C17.3299 17.3972 17.3299 15.9085 17.3299 14.4198C17.3299 13.9031 17.3299 13.3863 17.3299 12.8696C17.2018 11.5646 16.5776 10.3586 15.5863 9.50029C14.595 8.64201 13.312 8.19695 12.0021 8.25692C10.6922 8.31689 9.45532 8.87732 8.54655 9.82259C7.63778 10.7679 7.12647 12.0259 7.11809 13.3371C7.11809 15.2318 7.11809 17.1265 7.11809 19.0213C7.14876 19.2701 7.11765 19.5226 7.02752 19.7565C6.9374 19.9904 6.79102 20.1985 6.60135 20.3623C6.5823 20.3851 6.56579 20.4098 6.55213 20.4362Z" fill="#5C5F62"/>
<path d="M10 24.5H14.45C14.4469 24.8909 14.3425 25.2741 14.1472 25.6118C13.9519 25.9495 13.6724 26.2299 13.3365 26.4251C13.0006 26.6204 12.6199 26.7237 12.2322 26.725C11.8444 26.7262 11.4631 26.6253 11.1259 26.4322C10.783 26.2423 10.4973 25.9625 10.2991 25.6224C10.1009 25.2822 9.9976 24.8944 10 24.5Z" fill="#5C5F62"/>
<path d="M21.6 6.8C21.6 9.45097 19.451 11.6 16.8 11.6C14.149 11.6 12 9.45097 12 6.8C12 4.14903 14.149 2 16.8 2C19.451 2 21.6 4.14903 21.6 6.8Z" fill="#F04B22"/>
<path fill-rule="evenodd" clip-rule="evenodd" d="M23.6 6.8C23.6 10.5555 20.5555 13.6 16.8 13.6C13.0445 13.6 10 10.5555 10 6.8C10 3.04446 13.0445 0 16.8 0C20.5555 0 23.6 3.04446 23.6 6.8ZM16.8 11.6C19.451 11.6 21.6 9.45097 21.6 6.8C21.6 4.14903 19.451 2 16.8 2C14.149 2 12 4.14903 12 6.8C12 9.45097 14.149 11.6 16.8 11.6Z" fill="white"/>
</svg>
